<svg width="129" height="214" viewBox="0 0 129 214" fill="none" xmlns="http://www.w3.org/2000/svg">
<g clip-path="url(#clip0_7_167)">
<path d="M52.577 113.365C59.0033 126.685 55.6344 141.718 44.8222 149.775C38.8758 139.25 41.5899 123.126 52.577 113.365Z" fill="#EEF21C"/>
<path d="M129 203.799C120.031 214.083 105.637 216.81 93.1213 210.97C101.607 199.362 118.359 196.705 129 203.799Z" fill="#EEF21C"/>
<path d="M29.516 128.386C17.6327 129.498 4.36685 120.664 0 106.567C12.8177 105.296 26.4808 114.05 29.516 128.386Z" fill="#EEF21C"/>
<path d="M64.3141 169.195C56.0253 158.743 56.3686 143.04 64.6764 131.999C73.8582 143.547 73.2671 159.606 64.3141 169.195Z" fill="#EEF21C"/>
<path d="M20.4422 158.252C34.5947 153.283 48.9189 159.45 54.8526 170.967C42.7373 175.561 27.9936 169.88 20.4422 158.252Z" fill="#EEF21C"/>
<path d="M78.6382 149.179C90.8965 156.064 96.2995 171.075 91.4495 183.888C80.7485 178.214 74.4938 162.792 78.6382 149.179Z" fill="#EEF21C"/>
<path d="M67.4001 0C67.4446 15.0559 56.7722 26.9515 44.0467 28.6718C44.2755 14.4538 54.6905 3.27496 67.4001 0Z" fill="#EEF21C"/>
<path d="M101.474 196.389C92.0661 205.88 76.5756 207.042 65.1658 199.913C75.3806 189.177 91.7928 188.431 101.474 196.389Z" fill="#EEF21C"/>
<path d="M62.3913 31.2747C60.9293 45.292 48.4739 57.1271 35.7707 56.7384C36.8004 45.0339 47.2217 33.4505 62.3913 31.2747Z" fill="#EEF21C"/>
<path d="M40.7827 180.489C54.8113 172.63 69.7043 176.778 77.0555 186.45C65.4328 193.019 50.4412 190.508 40.7827 180.489Z" fill="#EEF21C"/>
<path d="M33.6222 123.079C29.5223 110.973 33.9114 96.3182 46.0521 87.9619C50.4317 99.7811 47.0533 115.251 33.6222 123.079Z" fill="#EEF21C"/>
<path d="M127.446 194.462C113.7 192.78 102.392 181.792 100.838 168.775C113.907 168.727 125.908 180.228 127.446 194.462Z" fill="#EEF21C"/>
<path d="M30.5107 46.7605C22.489 35.7442 22.7591 21.0961 31.0892 9.32153C39.4097 19.2738 40.3981 35.5722 30.5107 46.7605Z" fill="#EEF21C"/>
<path d="M29.3284 91.6352C26.9098 78.9782 34.4326 64.6009 47.0469 59.0513C49.5609 73.6261 42.1557 86.8406 29.3284 91.6352Z" fill="#EEF21C"/>
<path d="M4.13167 72.8359C16.5266 77.8216 25.1364 89.5197 22.864 104.773C10.4118 100.988 2.49171 86.2161 4.13167 72.8359Z" fill="#EEF21C"/>
<path d="M38.5611 150.368C24.0653 153.365 10.3037 143.786 6.14346 133.241C22.2156 130.157 34.2864 139.109 38.5611 150.368Z" fill="#EEF21C"/>
<path d="M15.891 39.0127C28.4417 50.4241 28.3813 66.4835 22.3555 75.668C11.6481 66.3847 10.2402 50.3062 15.891 39.0127Z" fill="#EEF21C"/>
</g>
<defs>
<clipPath id="clip0_7_167">
<rect width="129" height="214" fill="white"/>
</clipPath>
</defs>
</svg>
